<svg xmlns="http://www.w3.org/2000/svg" width="26" height="28" viewBox="0 0 26 28"><path fill="#3c0" d="M22 15.5V23q0 .406-.297.703T21 24h-6v-6h-4v6H5q-.406 0-.703-.297T4 23v-7.5q0-.016.008-.047t.008-.047L13 8l8.984 7.406q.016.031.016.094zm3.484-1.078l-.969 1.156q-.125.141-.328.172h-.047q-.203 0-.328-.109L12.999 6.625 2.186 15.641q-.187.125-.375.109-.203-.031-.328-.172l-.969-1.156q-.125-.156-.109-.367t.172-.336L11.811 4.36q.5-.406 1.188-.406t1.188.406L18 7.547V4.5q0-.219.141-.359T18.5 4h3q.219 0 .359.141T22 4.5v6.375l3.422 2.844q.156.125.172.336t-.109.367z"/></svg>